<svg width="291" height="237" viewBox="0 0 291 237" fill="none" xmlns="http://www.w3.org/2000/svg">
<path fill-rule="evenodd" clip-rule="evenodd" d="M355.601 134.749C351.136 134.202 340.849 132.484 332.741 130.933C324.633 129.381 312.132 127.653 304.961 127.093C273.15 124.608 262.924 123.241 245.719 119.175C236.153 116.914 228.252 114.744 228.159 114.352C228.067 113.96 230.121 113.304 232.723 112.896C238.169 112.04 263.499 110.545 274.169 110.449C285.334 110.348 308.026 111.36 308.739 111.99C309.089 112.3 309.686 112.388 310.064 112.185C310.443 111.982 312.051 111.816 313.639 111.816C315.823 111.815 316.297 112.066 315.588 112.848C314.921 113.582 315.141 113.61 316.35 112.943C317.303 112.418 318.133 112.361 318.24 112.814C318.344 113.259 319.06 113.445 319.83 113.227C320.6 113.008 325.326 113.105 330.332 113.44C342.967 114.286 352.847 114.169 352.234 113.18C351.962 112.74 345.585 112.236 338.063 112.06C330.541 111.885 320.428 111.236 315.59 110.618C307.866 109.632 294.728 108.985 276.313 108.685C273.251 108.635 270.497 108.357 270.194 108.068C269.89 107.778 267.155 107.488 264.117 107.424C250.238 107.13 244.873 106.333 241.528 104.067C238.57 102.063 238.274 101.587 238.574 99.3174C238.96 96.4031 239.998 95.7665 240.549 98.1064C240.757 98.9909 241.291 99.629 241.736 99.5244C242.18 99.4198 242.714 100.058 242.923 100.942C243.131 101.827 243.592 102.482 243.948 102.398C244.303 102.315 244.296 100.98 243.932 99.4319C243.568 97.884 242.958 96.6911 242.576 96.7809C242.194 96.8708 242.021 96.5296 242.192 96.0227C242.363 95.5158 243.547 94.8552 244.825 94.5547C246.102 94.2542 257.253 89.9314 269.604 84.9483C281.956 79.9655 299.157 73.4095 307.83 70.38C316.503 67.3502 326.574 63.6447 330.21 62.1453L336.821 59.4192L330.042 61.4334C326.314 62.5413 320.435 64.4791 316.977 65.7395C313.52 66.9998 304.679 70.2211 297.331 72.8973C289.982 75.5736 279.77 79.4921 274.635 81.6048C261.01 87.2117 236.324 96.5566 233.293 97.2545C231.855 97.5858 231.006 97.499 231.407 97.0619C231.807 96.6248 232.218 95.6033 232.318 94.7918C232.568 92.7833 236.46 90.7498 248.071 86.5609C253.478 84.61 260.246 81.5496 263.11 79.7603C265.973 77.9706 270.889 75.1994 274.032 73.6016C277.176 72.0041 279.094 70.717 278.295 70.7415C276.871 70.7851 275.478 71.4739 260.88 79.3494C256.589 81.6643 250.625 84.1136 246.097 85.421L238.507 87.612L243.28 84.3269C245.905 82.5201 250.876 79.9852 254.326 78.6941C259.553 76.738 267.464 73.2248 281.171 66.7717C282.333 66.2246 283.209 65.4607 283.118 65.0737C282.886 64.086 282.214 64.3209 274.241 68.1801C262.692 73.7696 255.073 76.8668 249.838 78.0994C246.971 78.7745 243.965 80.042 242.651 81.1301C241.193 82.3376 239.48 83.0144 237.816 83.0411C236.242 83.0664 234.868 83.57 234.288 84.3336C233.499 85.3719 233.259 85.2517 232.877 83.6274C232.403 81.6137 233.467 80.0237 239.088 74.3449C241.87 71.5344 242.07 71.4482 241.94 73.1114C241.863 74.0952 242.15 74.8178 242.577 74.7173C243.477 74.5054 243.97 71.9757 243.25 71.2582C242.981 70.9902 245.167 68.4454 248.107 65.6028C252.133 61.7098 254.025 60.4097 255.771 60.3341C258.133 60.2321 258.781 58.539 256.444 58.5762C255.755 58.5871 260.721 53.2314 267.478 46.6747C274.235 40.1179 279.803 34.322 279.852 33.7954C279.958 32.6541 276.216 36.1206 251.973 59.6248C241.847 69.4424 233.19 77.3612 232.735 77.2224C232.28 77.0835 233.159 75.9224 234.688 74.6424C239.416 70.6836 256.044 54.5143 260.31 49.7274C262.538 47.2278 267.142 42.7314 270.541 39.7353C276.777 34.2395 279.381 30.9903 274.891 34.3072C272.277 36.2383 266.689 41.5017 251.1 56.7144C245.651 62.0327 239.919 67.501 238.363 68.8662C236.807 70.2313 234.519 72.3758 233.28 73.6317C231.352 75.5841 230.793 75.803 229.423 75.1428C228.033 74.4729 227.93 74.5345 228.649 75.6055C230.199 77.915 227.717 77.9672 224.34 75.6962C220.935 73.4073 221.089 74.0948 224.708 77.3472C226.461 78.923 226.556 79.2155 225.538 79.9056C224.805 80.4022 223.43 79.9753 221.747 78.7288C218.432 76.2733 217.716 77.0461 220.805 79.7464C223.078 81.7332 223.088 81.7701 221.711 82.979C220.885 83.7029 220.059 83.9448 219.685 83.5718C219.337 83.2255 219.457 82.6939 219.95 82.3906C220.649 81.9613 220.506 81.3665 219.309 79.7091C217.464 77.1558 218.065 73.7952 221.844 65.5265C223.152 62.6645 224.029 60.2041 223.793 60.0588C223.214 59.7026 215.299 74.7462 214.541 77.6441C214.109 79.2955 213.634 79.7568 212.859 79.2794C211.447 78.4105 212.024 75.481 214.526 70.8133C217.106 66.0021 215.721 66.6553 212.275 71.875L209.456 76.1446L211.025 72.3811C213.401 66.6838 215.25 63.1143 215.445 63.8512C215.54 64.2145 216.098 63.4597 216.682 62.1738C217.521 60.3299 218.384 59.7301 220.77 59.335C224.234 58.761 224.062 57.2749 220.429 56.3916C219.224 56.0986 218.499 55.7442 218.818 55.6038C220.825 54.7216 221.572 54.6734 223.441 55.3058C225.311 55.9385 225.492 55.8642 225.192 54.5884C224.889 53.3013 225.02 53.2506 226.561 54.0598C231.509 56.6585 231.923 55.551 227.025 52.8183L221.266 49.6057L222.475 47.1998C223.14 45.8765 223.802 45.2435 223.947 45.7927C224.092 46.3421 224.613 46.6967 225.106 46.5809C225.598 46.4651 225.689 45.9141 225.308 45.3566C224.813 44.6311 225.141 44.3304 226.461 44.2995C228.227 44.2584 228.23 44.2192 226.526 43.3961C224.817 42.5707 224.821 42.3679 226.607 38.4345C227.631 36.1789 230.017 31.6783 231.908 28.4332C233.798 25.188 235.919 20.2976 236.62 17.5657C237.321 14.8338 238.583 11.1 239.425 9.26844C240.267 7.43692 241.104 4.7965 241.286 3.4005C241.594 1.03571 241.537 0.962696 240.441 2.32649C238.985 4.13876 237.833 6.74641 236.929 10.28C235.792 14.7219 224.201 39.5388 222.858 40.4063C222.176 40.8474 221.679 41.5372 221.753 41.9391C221.828 42.3412 221.53 44.0152 221.091 45.6593C220.448 48.0661 219.923 48.6306 218.396 48.5582C217.353 48.5089 215.47 47.7655 214.212 46.9062C212.954 46.0472 211.975 45.5579 212.037 45.8192C212.098 46.0805 211.229 46.0598 210.106 45.773C208.103 45.2618 208.1 45.2768 209.915 46.5497C211.716 47.812 211.727 48.0288 210.324 54.4264C208.488 62.7947 203.872 73.8288 203 71.9355C202.66 71.1988 202.03 70.6787 201.599 70.78C201.168 70.8813 201.398 69.0917 202.11 66.8028C203.619 61.9479 202.904 60.4943 201.32 65.1968C200.087 68.8567 197.786 70.3458 193.973 69.9528C189.44 69.4858 189.61 70.5548 187.069 26.6771C185.035 -8.42149 184.9 -10.014 184.075 -8.68389C183.736 -8.13741 183.965 0.400826 184.583 10.29C186.716 44.404 188.266 71.7985 188.128 72.925C188.024 73.7694 187.535 73.9351 186.193 73.581C185.205 73.3202 183.949 73.3128 183.403 73.5641C182.682 73.896 181.992 72.5065 180.89 68.5022C180.055 65.4667 179.176 62.8629 178.938 62.7161C178.699 62.5694 178.453 63.7448 178.389 65.3277C178.288 67.8543 178.117 67.5473 176.991 62.814C176.07 58.9393 175.257 57.1435 174.101 56.4325C172.535 55.4686 170.866 49.8145 165.324 26.701C164.742 24.2711 163.98 22.1568 163.633 22.0024C163.285 21.8481 159.29 10.9835 154.757 -2.14132C150.223 -15.2661 146.288 -26.1438 146.011 -26.3143C145.063 -26.8975 146.82 -21.1178 153.554 -1.50362C157.261 9.29256 160.61 19.4626 160.996 21.0966C161.733 24.2118 158.046 43.6576 156.653 44.0052C155.513 44.2895 152.495 50.2426 153.157 50.9017C154.067 51.8089 154.249 51.5828 155.43 48.0774C156.036 46.2766 156.737 44.9293 156.987 45.0829C157.611 45.4668 155.884 52.1911 153.797 57.5099L152.074 61.8993L148.216 55.4643C141.265 43.8702 138.933 40.5471 137.915 40.7867C137.04 40.9923 130.673 33.6321 130.28 31.9615C130.2 31.6227 127.454 27.925 124.178 23.7446C120.901 19.5639 116.434 13.6996 114.25 10.7129C108.007 2.17225 101.433 -5.71677 100.677 -5.57675C100.296 -5.50653 101.505 -3.80153 103.363 -1.78842C105.221 0.224963 108.703 4.84736 111.1 8.4838C113.499 12.1202 116.818 16.8764 118.477 19.0531C123.984 26.2793 126.622 30.3108 125.333 29.5326C123.707 28.5514 122.664 28.7968 123.39 29.9896C124.828 32.3505 133.413 45.1517 135.173 47.5569C137.532 50.782 137.833 51.6808 136.221 50.6892C134.837 49.8371 133.66 49.9561 133.888 50.9251C133.974 51.2925 135.069 51.8633 136.319 52.1936C137.57 52.5239 138.753 53.4729 138.949 54.3027C139.144 55.1326 140.415 56.4958 141.774 57.3322C144.525 59.0244 146.96 61.513 146.534 62.1964C146.382 62.4413 144.737 61.5546 142.878 60.2259C135.193 54.7304 118.075 43.7854 117.395 43.9316C116.581 44.1066 123.423 48.7624 138.313 58.1649C147.97 64.263 151.133 67.4379 150.328 70.2229C150.116 70.955 150.402 72.0012 150.962 72.5482C151.66 73.2297 151.911 73.2254 151.757 72.5346C151.634 71.9804 151.811 71.4611 152.152 71.381C152.996 71.1825 157.896 78.5865 158.086 80.3473C158.175 81.1702 158.62 81.5097 159.147 81.1574C159.647 80.8238 160.97 81.5335 162.089 82.7345C163.207 83.9355 164.29 84.6477 164.496 84.3173C164.702 83.9869 164.063 82.9534 163.076 82.0205C162.089 81.0878 161.224 80.0382 161.154 79.6884C161.084 79.3384 162.737 80.7116 164.829 82.7398C166.921 84.7683 168.512 86.7869 168.363 87.2259C167.967 88.4038 166.427 87.6642 166.604 86.3807C166.692 85.7428 166.057 85.3917 165.09 85.5438C163.849 85.7396 163.539 86.2942 163.875 87.7191C164.55 90.5923 163.462 91.0093 159.783 89.2869C157.064 88.0142 156.559 87.4451 157.006 86.1572C157.786 83.9096 155.965 82.993 154.389 84.8406C153.251 86.1751 153.481 86.4561 157.852 89.0604C160.427 90.5949 162.867 91.7723 163.273 91.6767C165.1 91.2469 163.19 93.2571 160.748 94.3346C157.593 95.7265 157.524 96.5463 160.465 97.7053C163.8 99.0198 161.374 99.1219 157.369 97.8353L153.756 96.6746L152.556 90.7051C151.136 83.6429 150.335 83.8472 151.181 91.0561L151.777 96.1383L145.264 92.0272L138.751 87.9157L142.684 87.4082C148.012 86.7205 147.436 85.5868 142.034 86.1281C138.189 86.5134 137.168 86.186 132.396 83.0352C129.461 81.0968 127.16 79.2099 127.284 78.8415C127.408 78.4732 127.136 78.1317 126.679 78.0825C124.161 77.8131 79.9567 50.9112 67.7628 42.2277C64.1909 39.6843 60.9397 37.6805 60.5379 37.775C59.4429 38.0326 87.5533 57.0561 113.895 73.8848C117.989 76.5 118.237 76.2883 111.133 76.2397C109.616 76.2296 109.114 76.4688 109.612 76.965C110.021 77.3721 112.44 77.6481 114.988 77.5782C117.536 77.5083 119.907 77.7355 120.256 78.0833C120.605 78.4315 120.382 78.6807 119.761 78.6379C116.139 78.3877 113.874 78.6956 114.53 79.3491C114.924 79.7418 116.05 79.901 117.031 79.7029C118.761 79.3538 118.772 79.3775 117.376 80.4769C116.197 81.4057 116.393 81.4532 118.46 80.7402C119.847 80.2613 120.868 80.2089 120.729 80.6242C120.589 81.0393 120.836 81.294 121.278 81.19C121.72 81.086 123.2 81.1618 124.567 81.3581C126.858 81.6874 126.937 81.7926 125.578 82.6976C124.294 83.552 124.454 83.6748 126.808 83.6421C128.295 83.6217 130.128 84.0682 130.881 84.6346C132.108 85.5583 131.841 85.7132 128.284 86.1409C124.855 86.5534 124.548 86.7164 126.009 87.3494C126.938 87.7518 129.575 88.1237 131.87 88.1756C134.874 88.2438 137.494 89.1238 141.23 91.3198C154.141 98.9103 158.159 101.119 159.394 101.309C160.524 101.483 160.542 101.694 159.515 102.737C158.852 103.41 158.438 104.507 158.595 105.174C158.752 105.842 158.437 106.24 157.894 106.06C157.351 105.88 157.089 106.206 157.312 106.784C158.362 109.507 158.046 110.017 155.269 110.075C151.774 110.148 151.028 109.91 151.389 108.838C151.565 108.318 152.407 108.169 153.518 108.462C155.44 108.97 156.266 107.972 157.506 103.641C157.866 102.387 157.425 102.723 156.09 104.721C154.299 107.402 154.03 107.546 152.526 106.62C151.631 106.07 151.289 105.528 151.766 105.416C153.59 104.986 152.099 103.448 149.538 103.118C147.357 102.838 146.861 102.413 146.887 100.846C146.936 97.808 145.347 98.9703 144.771 102.394C144.23 105.61 141.998 107.118 141.4 104.672C141.159 103.688 140.937 103.609 140.657 104.406C140.153 105.843 130.155 103.969 129.779 102.367C129.462 101.023 127.296 101.491 127.068 102.952C126.931 103.833 126.837 103.855 126.597 103.063C126.247 101.91 124.59 102.073 124.863 103.233C124.964 103.662 128.07 104.625 131.765 105.373C135.461 106.121 138.534 106.942 138.594 107.198C138.711 107.697 137.467 107.511 124.523 105.096C113.06 102.958 112.471 102.777 113.199 101.61C113.898 100.487 112.646 97.6468 111.564 97.9014C111.171 97.9937 110.647 97.2087 110.4 96.1567C110.077 94.7841 109.189 94.1213 107.254 93.8098C105.771 93.5709 103.929 92.817 103.161 92.1348C100.822 90.058 83.2527 85.9399 83.6333 87.5577C83.737 87.9986 84.7172 88.4939 85.812 88.6586C89.1785 89.1647 86.2514 89.5122 78.8091 89.4897C74.9052 89.4781 70.4457 89.8022 68.8993 90.2105L66.0876 90.9528L68.6629 91.0191C72.0227 91.1055 86.5572 90.8761 90.3396 90.6764C93.9692 90.4853 96.4021 91.0588 96.6629 92.1674C96.9381 93.3374 101.756 96.1728 105.328 97.2672C106.972 97.7707 108.385 98.4749 108.469 98.8319C108.553 99.1889 107.643 99.1275 106.447 98.6956C104.518 97.9994 104.303 98.0478 104.556 99.1209C104.712 99.7867 105.204 100.246 105.649 100.141C106.094 100.037 106.312 100.186 106.133 100.472C105.555 101.4 102.913 100.635 103.25 99.6372C103.443 99.0643 103.242 99.0011 102.758 99.4819C102.309 99.9288 100.206 99.9106 98.0857 99.4414C95.9655 98.9726 93.0502 98.7264 91.607 98.8942C90.1636 99.062 87.8145 98.7701 86.3866 98.2458L83.7903 97.2923L85.8274 95.9778C88.1989 94.4474 88.3066 92.797 85.9433 94.2036C84.9466 94.7967 84.0065 94.8043 83.424 94.224C82.6679 93.4704 82.3471 93.5357 81.7004 94.5741C81.0536 95.6124 81.1633 95.9385 82.2899 96.3246C83.1218 96.6098 83.2911 96.8944 82.7143 97.038C82.1863 97.1693 81.4786 97.0023 81.1417 96.6663C80.805 96.3306 79.5313 96.0424 78.3113 96.0259C76.2532 95.9978 64.4095 93.9033 53.1426 91.5749C50.5071 91.0301 48.1931 90.8376 48.0007 91.1465C47.808 91.4557 50.6328 92.2946 54.2778 93.0104C57.9231 93.7264 64.5653 95.0309 69.0383 95.9094C73.5117 96.7876 77.4626 97.4379 77.8184 97.3542C78.1741 97.2705 81.1101 98.1073 84.3425 99.2138C87.5751 100.32 91.1609 101.004 92.3108 100.734C96.3637 99.7801 107.769 103.109 108.309 105.403C108.407 105.818 109.125 106.015 109.905 105.84C112.835 105.185 115.77 105.269 119.208 106.104C121.159 106.578 126.122 107.407 130.238 107.947C139.156 109.117 148.867 110.968 148.997 111.523C149.049 111.742 145.889 111.366 141.975 110.689C138.061 110.011 134.94 109.8 135.039 110.22C135.138 110.64 136.518 111.202 138.106 111.47C139.694 111.737 142.927 112.367 145.291 112.868C147.655 113.37 152.413 114.012 155.866 114.295L162.142 114.81L156.402 115.797C150.917 116.741 150.851 116.774 154.935 116.56C157.286 116.437 160.183 116.511 161.374 116.726C163.169 117.049 162.868 117.2 159.604 117.612C143.073 119.695 135.564 120.958 130.443 122.512C125.107 124.133 123.583 125.088 114.967 132.216C106.463 139.251 104.526 140.474 97.4013 143.311C92.9973 145.064 88.0082 147.137 86.3148 147.918L83.2357 149.337L86.2658 148.726C87.9324 148.39 92.9346 146.672 97.3818 144.907C105.369 141.737 109.882 141.103 110.348 143.085C110.447 143.508 111.311 143.913 112.266 143.985C113.221 144.056 114.087 144.473 114.191 144.912C114.294 145.35 114.046 145.599 113.64 145.465C113.234 145.33 112.452 145.677 111.902 146.235C111.152 146.996 111.459 147.122 113.127 146.739C114.477 146.429 115.457 146.666 115.615 147.341C115.943 148.732 113.313 150.199 111.971 149.373C111.422 149.036 110.024 148.533 108.864 148.257C107.384 147.905 106.703 147.18 106.584 145.829C106.476 144.61 106.139 144.176 105.665 144.646C105.254 145.055 105.04 145.91 105.19 146.548C105.375 147.334 104.561 147.919 102.661 148.366C100.701 148.827 99.2003 149.945 97.6645 152.087C96.4575 153.771 95.1193 155.231 94.6911 155.332C93.5565 155.599 91.8834 158.895 92.1997 160.239C92.3839 161.022 90.3295 162.48 85.8015 164.777C82.1331 166.638 73.8527 171.018 67.4004 174.51C51.7521 182.978 50.898 183.367 40.8139 186.623C36.0163 188.172 26.5841 191.329 19.8536 193.638C13.1231 195.947 6.03085 198.315 4.09306 198.899C2.11038 199.498 0.527075 200.446 0.472012 201.07C0.275535 203.285 38.1502 192.331 43.7692 188.548C44.6592 187.949 47.4876 186.699 50.0541 185.77C56.1076 183.58 66.8602 178.453 71.1012 175.734C76.3411 172.374 90.704 165.81 97.6802 163.588C101.173 162.475 105.626 161.004 107.576 160.318C111.007 159.112 111.066 159.126 109.382 160.74C107.025 163 107.964 162.699 112.684 159.684C121.681 153.936 126.575 151.245 130.316 149.986C132.49 149.255 135.45 147.977 136.894 147.146C140.183 145.253 141.736 144.868 141.34 146.045C141.171 146.546 141.494 146.644 142.057 146.262C142.62 145.88 143.679 146.017 144.411 146.567C145.874 147.666 148.071 147.481 147.789 146.283C147.691 145.866 146.713 145.169 145.615 144.733C143.681 143.967 143.722 143.887 146.929 142.161C148.75 141.181 150.947 140.123 151.812 139.811C152.678 139.499 154.142 138.789 155.067 138.234C156.452 137.403 156.992 137.582 158.125 139.253C159.317 141.01 159.297 141.53 157.971 143.126C153.869 148.063 136.894 164.073 135.384 164.428C134.736 164.581 134.284 165.041 134.381 165.451C134.555 166.192 127.576 173.434 124.101 176.118C123.104 176.888 119.845 180.651 116.859 184.48C112.343 190.27 111.189 191.321 109.99 190.729C108.02 189.755 107.443 190.987 109.231 192.35C110.532 193.341 110.5 193.403 108.916 192.961C106.623 192.322 104.749 194.805 106.52 196.136C107.385 196.785 106.691 198.319 103.518 202.774C99.3018 208.694 92.9416 220.564 88.0933 231.561C86.601 234.945 81.0823 244.549 75.8297 252.902C70.5769 261.256 66.6364 268.006 67.0724 267.904C68.2601 267.624 79.7372 250.343 85.7747 239.743C88.691 234.623 95.4365 223.03 100.765 213.98C109.817 198.606 110.598 197.545 112.662 197.816C115.599 198.202 116.145 198.017 114.7 197.128C112.76 195.934 113.052 195.124 115.316 195.421C116.475 195.573 118.163 195.306 119.068 194.829C120.699 193.968 120.69 193.946 118.001 192.211L115.288 190.461L117.5 189.392C118.716 188.805 120.259 188.031 120.929 187.673C121.598 187.316 124.511 187.629 127.402 188.37C132.865 189.77 135.166 189.483 130.581 187.973C129.138 187.497 126.742 186.239 125.257 185.175L122.557 183.242L125.021 179.457C127.332 175.908 135.056 167.619 136.104 167.566C136.365 167.552 137.14 166.64 137.827 165.538C139.192 163.346 147.265 156.541 148.979 156.138C149.567 156 149.979 155.592 149.894 155.232C149.681 154.325 154.46 150.606 156.433 150.142C157.322 149.932 159.671 148.401 161.654 146.739L165.258 143.716L165.635 147.652C166.07 152.192 166.189 151.628 163.077 159.817C161.764 163.274 160.913 166.239 161.186 166.407C161.99 166.903 166.956 154.278 167.062 151.468C167.116 150.051 167.178 147.264 167.202 145.275C167.242 141.88 168.485 139.957 169.059 142.4C169.203 143.009 169.967 143.827 170.758 144.218C171.548 144.609 172.063 145.322 171.9 145.804C171.738 146.285 172.364 147.2 173.292 147.837C174.887 148.931 174.738 149.469 170.556 157.708C164.845 168.959 159.712 176.932 157.899 177.368C157.098 177.561 156.654 178.232 156.895 178.885C157.132 179.529 155.879 181.733 154.111 183.783C149.939 188.618 133.384 214.071 133.855 214.925C134.054 215.286 133.316 216.349 132.216 217.287C131.115 218.226 129.856 219.771 129.418 220.722C128.714 222.251 128.789 222.224 130.07 220.488C130.867 219.409 131.732 218.657 131.992 218.817C132.252 218.977 130.994 220.575 129.196 222.369C127.398 224.162 124.64 227.523 123.067 229.837C120.014 234.327 107.513 249.663 106.221 250.503C105.795 250.78 105.77 251.221 106.165 251.485C106.863 251.95 107.905 250.794 118.096 238.249C120.768 234.961 123.954 231.271 125.177 230.049C126.4 228.828 129.591 224.997 132.268 221.535C134.945 218.074 138.503 213.713 140.176 211.845C141.848 209.978 144.315 206.999 145.658 205.227C147.001 203.455 148.174 202.321 148.265 202.708C148.447 203.48 146.917 207.71 146.144 208.572C145.878 208.87 144.275 212.878 142.582 217.48C138.966 227.309 132.081 243.559 129.91 247.384C129.073 248.86 128.686 250.25 129.05 250.474C129.735 250.896 131.143 248.331 133.942 241.562C134.839 239.391 138.661 230.342 142.436 221.453C146.211 212.563 149.656 203.983 150.092 202.384C151.175 198.418 157.038 189.035 158.673 188.65C159.404 188.478 161.304 186.516 162.895 184.29C164.487 182.064 166.073 180.418 166.421 180.632C166.769 180.846 166.911 180.418 166.738 179.681C166.449 178.454 166.578 178.43 168.262 179.393C170.052 180.418 170.068 180.566 168.871 184.978C168.194 187.471 167.133 191.062 166.513 192.958C165.892 194.854 165.763 196.316 166.226 196.207C166.689 196.099 167.664 193.96 168.392 191.456C169.121 188.951 170.122 186.806 170.617 186.689C171.113 186.572 171.758 184.72 172.05 182.572C172.343 180.425 173.204 178.299 173.962 177.847C174.721 177.396 175.421 176.45 175.519 175.744C175.743 174.116 177.612 173.654 179.187 174.838C180.017 175.461 180.171 175.978 179.676 176.47C179.277 176.867 179.121 177.917 179.33 178.804C179.539 179.692 179.459 181.311 179.152 182.403C178.845 183.494 178.637 185.045 178.688 185.849C178.935 189.671 177.059 204.298 175.279 212.431C174.188 217.415 173.1 224.163 172.861 227.426C172.623 230.69 172.355 233.949 172.268 234.67C172.18 235.391 172.514 235.121 173.01 234.071C173.505 233.021 173.862 230.837 173.801 229.218C173.674 225.829 174.214 222.519 176.823 210.686C177.855 206.01 178.968 198.826 179.297 194.724C179.831 188.073 180.108 187.214 181.848 186.804C184.568 186.164 185.209 187.554 185.106 193.869C185.057 196.883 185.294 200.351 185.634 201.575C186.073 203.16 186.203 202.713 186.083 200.022C185.75 192.533 186.179 189.647 187.597 189.837C188.332 189.936 189.243 189.944 189.621 189.855C189.999 189.766 191.368 190.62 192.663 191.752C194.646 193.486 194.947 194.164 194.57 196.041C194.323 197.267 194.587 201.853 195.157 206.231C195.726 210.609 196.215 215.284 196.243 216.619C196.276 218.197 196.546 218.797 197.013 218.333C197.875 217.476 197.759 209.264 196.829 205.312C196.405 203.511 196.496 202.821 197.08 203.404C197.701 204.023 197.923 203.397 197.77 201.457C197.647 199.885 197.431 197.098 197.29 195.264C197.148 193.43 196.53 188.994 195.915 185.404C194.825 179.049 194.079 169.567 193.904 159.849L193.817 155.056L196.997 157.424C202.891 161.813 202.971 161.991 206.024 177.471C210.564 200.492 212.443 211.641 211.808 211.791C211.481 211.868 211.193 212.699 211.168 213.638C211.14 214.713 211.522 215.252 212.197 215.093C213.038 214.896 214.001 217.744 216.646 228.261C218.503 235.642 220.594 244.472 221.292 247.885C222.036 251.522 222.962 254.222 223.529 254.409C224.157 254.618 224.123 253.148 223.433 250.213C222.772 247.406 222.72 245.811 223.295 246.002C223.804 246.171 224.13 245.925 224.02 245.457C223.91 244.989 223.456 244.691 223.011 244.796C222.567 244.9 222.033 244.262 221.825 243.378C221.572 242.306 221.985 241.643 223.063 241.389C223.993 241.171 224.554 240.473 224.384 239.749C224.173 238.854 223.653 238.747 222.59 239.379C221.353 240.115 221.007 239.904 220.597 238.158C220.314 236.955 220.498 236.178 221.025 236.353C221.534 236.522 221.865 236.298 221.761 235.855C221.657 235.413 221.156 234.913 220.647 234.745C219.349 234.314 218.721 231.081 219.645 229.581C220.264 228.578 220.125 228.244 218.95 227.906C217.818 227.579 217.364 226.584 216.959 223.547C216.671 221.383 216.786 219.255 217.214 218.819C217.787 218.235 217.625 217.658 216.601 216.64C213.615 213.672 214.242 211.005 218.416 208.919C221.589 207.333 230.635 201.827 233.712 199.609C235.116 198.596 238.615 196.741 241.487 195.486C244.36 194.231 246.637 192.895 246.548 192.517C246.459 192.138 245.791 192.154 245.063 192.55C244.335 192.947 244.707 192.488 245.889 191.529C248.821 189.151 256.329 185.677 256.848 186.459C257.518 187.471 264.031 194.461 272.155 202.889C276.284 207.173 280.609 212.174 281.764 214.002C285.991 220.686 288.864 224.712 291.358 227.444C294.449 230.832 293.582 228.893 289.04 222.261C287.182 219.548 284.268 215.269 282.566 212.753C280.864 210.236 275.846 204.493 271.414 199.99C262.175 190.603 256.067 183.564 256.961 183.335C257.299 183.248 257.127 183.002 256.578 182.788C256.03 182.574 252.793 179.254 249.387 175.41C245.98 171.566 240.588 165.77 237.404 162.53C230.099 155.096 221.298 145.225 220.018 143.032C219.174 141.585 219.334 141.284 221.181 140.85C222.775 140.474 226.274 141.983 234.868 146.752C241.217 150.276 249.081 154.371 252.343 155.854C255.605 157.337 258.882 159.334 259.628 160.293C260.372 161.251 261.407 161.935 261.927 161.813C262.756 161.618 283.486 176.048 311.813 196.538C316.804 200.148 321.064 203.059 321.281 203.008C322.3 202.769 301.655 187.28 284.468 175.391C280.314 172.518 277.167 170.108 277.474 170.036C277.782 169.964 282.428 172.293 287.801 175.212C297.899 180.699 309.546 185.581 322.092 189.586C330.348 192.222 332.186 192.101 324.91 189.4C304.865 181.959 280.655 170.66 280.149 168.51C280.051 168.093 280.698 167.58 281.587 167.371C282.477 167.162 283.115 166.612 283.007 166.15C282.883 165.625 281.794 165.757 280.103 166.503C277.223 167.774 276.913 167.603 277.591 165.117C277.827 164.252 278.431 161.633 278.933 159.298C280.211 153.348 282.052 153.122 282.706 158.834C283.039 161.74 283.365 162.714 283.695 161.784C283.965 161.02 283.932 159.29 283.622 157.94C282.972 155.112 283.861 153.259 286.121 152.727C288.412 152.188 301.178 156.121 311.302 160.485C316.12 162.561 320.278 164.209 320.542 164.147C320.807 164.085 324.007 164.999 327.654 166.18C351.229 173.809 355.831 175.262 358.467 175.913C360.086 176.312 361.367 176.451 361.313 176.221C361.173 175.628 348.29 171.051 331.054 165.471C322.927 162.84 312.436 159.05 307.742 157.048C303.048 155.047 296.721 152.636 293.683 151.69C278.197 146.871 265.665 142.587 262.957 141.187C261.293 140.327 255.138 137.828 249.279 135.634C243.42 133.44 237.387 131.06 235.872 130.345L233.117 129.044L240.117 128.028C254.368 125.961 264.321 126.133 277.329 128.671C279.385 129.072 283.621 129.203 286.742 128.96C289.864 128.718 293.363 128.861 294.519 129.279C295.674 129.696 296.993 129.667 297.449 129.214C297.946 128.72 298.146 128.78 297.949 129.364C297.763 129.917 298.813 130.461 300.374 130.622C304.288 131.026 305.499 130.449 301.793 129.947C298.087 129.444 299.298 128.868 303.212 129.271C304.726 129.427 305.843 129.917 305.694 130.36C305.544 130.802 306.488 131.139 307.79 131.108C310.396 131.045 321.168 132.184 345.232 135.067C364.042 137.32 364.11 137.325 363.891 136.44C363.797 136.057 360.066 135.297 355.601 134.749ZM327.118 131.937C324.591 131.527 322.625 131.027 322.75 130.827C322.875 130.626 325.045 130.798 327.573 131.208C330.1 131.618 332.066 132.118 331.941 132.319C331.816 132.519 329.646 132.347 327.118 131.937ZM281.924 152.309C280.895 153.006 275.186 149.584 275.782 148.628C276.119 148.086 282.677 150.348 282.861 151.069C282.933 151.353 282.512 151.91 281.924 152.309ZM278.383 156.962C277.821 158.333 277.099 161.02 276.778 162.932L276.196 166.41L271.249 163.416C268.528 161.771 266.145 159.76 265.954 158.949C265.761 158.127 266.58 156.605 267.803 155.512C269.01 154.433 270.994 152.508 272.21 151.235L274.422 148.921L275.958 150.354C277.352 151.653 278.971 153.529 279.283 154.205C279.35 154.35 278.945 155.591 278.383 156.962ZM267.858 153.439L265.234 155.886L264.209 151.277C262.518 143.665 262.81 143.276 268.595 145.448L273.547 147.306L272.014 149.149C271.171 150.162 269.301 152.092 267.858 153.439ZM274.667 168.151C274.522 168.185 273.288 167.425 271.923 166.462L269.443 164.712L272.125 166.138C274.632 167.472 275.301 168.001 274.667 168.151ZM257.826 124.096C255.8 123.795 254.244 123.385 254.368 123.186C254.492 122.987 256.257 123.061 258.291 123.35C260.324 123.64 261.88 124.049 261.749 124.26C261.617 124.471 259.852 124.398 257.826 124.096ZM250.964 110.644C250.356 110.552 250.768 110.262 251.879 110.001C252.991 109.739 253.489 109.815 252.985 110.169C252.482 110.523 251.572 110.737 250.964 110.644ZM263.61 158.006C263.095 159.533 259.433 157.285 256.106 153.402C253.914 150.843 253.562 150.015 254.162 148.819C254.805 147.535 255.238 147.532 257.758 148.799C259.334 149.591 261.048 150.129 261.567 149.995C262.086 149.86 260.983 148.971 259.117 148.019C255.832 146.343 255.764 146.238 257.01 144.719C257.718 143.856 258.979 142.989 259.812 142.793C261.205 142.465 261.431 143.014 262.65 149.682C263.378 153.667 263.81 157.412 263.61 158.006ZM251.377 143.766C245.817 140.85 240.166 137.125 240.497 136.594C240.663 136.326 244.546 137.248 249.126 138.642L257.451 141.177L256.167 143.39L254.882 145.604L251.377 143.766ZM242.926 110.864C242.092 110.845 242.497 110.56 243.828 110.229C245.158 109.899 245.84 109.915 245.345 110.264C244.849 110.613 243.761 110.883 242.926 110.864ZM253.428 147.959C252.925 148.766 250.341 146.714 249.947 145.194C249.726 144.342 250.129 144.33 251.615 145.146C253.685 146.281 254.086 146.903 253.428 147.959ZM247.473 150.742C239.597 145.815 233.289 139.296 231.011 133.727C229.704 130.533 229.71 130.51 231.722 131.39C233.977 132.377 238.334 135.754 236.619 135.186C234.167 134.373 236.169 136.395 240.919 139.528C243.704 141.365 246.426 143.766 246.968 144.862C247.511 145.959 248.751 147.623 249.726 148.56C253.037 151.746 255.321 154.456 255.067 154.896C254.928 155.137 251.51 153.268 247.473 150.742ZM239.793 120.685C236.231 120.282 232.086 119.337 230.583 118.585C229.08 117.833 227.332 117.339 226.699 117.488C226.066 117.637 225.463 117.397 225.359 116.955C225.255 116.512 225.543 116.063 225.999 115.955C227.075 115.702 246.764 120.624 246.483 121.075C246.365 121.264 243.355 121.088 239.793 120.685ZM246.111 126.499C245.53 126.635 244.221 126.376 243.203 125.922C241.51 125.166 241.593 125.117 244.185 125.349C247.143 125.614 247.914 126.074 246.111 126.499ZM234.396 89.1103C233.561 89.0913 233.967 88.8059 235.297 88.4757C236.627 88.1455 237.31 88.1608 236.814 88.5099C236.319 88.859 235.231 89.1292 234.396 89.1103ZM234.52 108.157C231.001 108.828 226.752 110.111 225.078 111.009C221.547 112.905 218.346 117.186 219.152 118.933C219.458 119.596 222.104 120.528 225.032 121.004C231.75 122.096 233.637 123.07 231.363 124.269C230.03 124.973 229.864 124.882 230.428 123.757C231.426 121.764 230.252 122.323 227.939 124.941L225.926 127.22L223.198 126.057C221.698 125.417 220.302 124.933 220.097 124.981C219.892 125.029 219.763 126.301 219.81 127.807C220.005 134.017 220.094 133.935 215.904 131.425C212.429 129.343 211.885 129.257 210.234 130.53C207.99 132.259 208.033 132.443 211.552 136.2C213.111 137.865 214.4 139.28 214.416 139.345C214.508 139.729 206.128 141.11 205.617 140.796C205.276 140.586 204.368 140.562 203.601 140.742C202.079 141.1 200.859 139.751 200.21 136.992C199.981 136.021 199.084 134.595 198.215 133.824C197.346 133.052 196.811 132.138 197.026 131.793C197.241 131.448 197.014 131.26 196.521 131.376C196.029 131.492 195.486 132.001 195.315 132.508C195.145 133.015 194.105 133.642 193.006 133.9C190.381 134.518 185.899 137.784 185.098 139.662C184.548 140.952 184.256 140.881 182.888 139.12C181.378 137.177 181.281 137.167 180.545 138.893C179.822 140.59 179.671 140.636 177.944 139.688C176.935 139.135 175.196 137.655 174.079 136.4C171.237 133.208 168.074 132.639 165.889 134.928C164.628 136.249 163.931 136.509 163.068 135.978C161.399 134.951 160.207 135.456 161.683 136.565C162.372 137.082 162.776 137.978 162.582 138.555C162.372 139.18 161.29 138.381 159.911 136.582C158.637 134.92 157.576 133.482 157.554 133.387C157.531 133.292 160.079 131.699 163.216 129.847C166.353 127.995 168.932 126.08 168.947 125.591C168.963 125.103 168.949 122.508 168.914 119.825C168.86 115.572 169.071 114.963 170.556 115.074C171.564 115.15 172.438 114.69 172.698 113.947C173.382 111.991 172.62 109.844 171.349 110.143C170.085 110.44 164.702 107.376 162.886 105.325C161.656 103.935 161.772 99.6672 163.048 99.367C164.135 99.1113 167.207 94.6304 166.974 93.6409C166.86 93.1562 167.134 92.2763 167.583 91.6853C168.867 89.9959 171.31 91.4937 174.828 96.1277C176.889 98.8413 178.305 100.034 178.95 99.5965C179.977 98.9006 183.94 103.073 185.922 106.935C186.511 108.084 187.364 109.147 187.816 109.297C188.588 109.553 188.579 108.955 187.74 103.741C187.559 102.617 187.32 101.092 187.209 100.352C187.098 99.6116 187.818 98.5882 188.809 98.0776C190.204 97.359 190.653 96.1423 190.797 92.6903C190.967 88.6341 191.197 88.1766 193.344 87.6241C194.643 87.2901 196.054 86.654 196.481 86.2102C196.907 85.7664 198.801 85.9891 200.688 86.7054C202.575 87.4215 204.578 87.8997 205.137 87.7681C205.697 87.6364 207.882 88.26 209.994 89.1538C212.105 90.0474 213.99 90.5261 214.182 90.2172C214.375 89.9083 215.07 90.23 215.726 90.9323C218.625 94.0318 218.642 94.0351 221.419 92.0315C222.867 90.9872 224.193 89.7117 224.367 89.1971C224.73 88.1179 226.204 87.5904 226.203 88.5404C226.202 88.8906 226.985 90.5734 227.943 92.28C228.917 94.0164 229.582 96.1956 229.452 97.2286C229.264 98.7291 230.311 99.7953 235.052 102.93C238.26 105.051 240.892 106.82 240.902 106.862C240.912 106.904 238.04 107.487 234.52 108.157ZM239.132 110.9C238.427 110.795 238.574 110.559 239.507 110.299C240.351 110.064 240.873 110.141 240.667 110.472C240.461 110.802 239.771 110.995 239.132 110.9ZM230.16 79.3355C229.716 79.4401 229.314 79.3662 229.268 79.1711C229.223 78.976 229.496 78.5074 229.877 78.1294C230.257 77.7514 230.658 77.8255 230.769 78.2938C230.879 78.762 230.605 79.2309 230.16 79.3355ZM235.853 127.536C230.921 128.439 228.479 128.101 232.723 127.102C235.276 126.502 235.93 125.177 233.831 124.858C233.222 124.766 233.082 124.577 233.519 124.44C234.318 124.187 240.262 125.899 240.383 126.417C240.419 126.57 238.381 127.074 235.853 127.536ZM251.639 186.049C250.309 186.879 247.46 188.233 245.308 189.058C243.155 189.883 239.125 191.993 236.351 193.749C232.213 196.368 228.948 197.493 228.688 196.39C228.662 196.277 225.689 189.354 222.083 181.005C218.476 172.657 215.293 164.856 215.009 163.671C214.725 162.486 213.533 159.867 212.361 157.852C209.013 152.102 209.269 151.854 215.778 154.529C220.605 156.513 222.066 157.543 222.981 159.607C223.613 161.03 224.368 162.054 224.659 161.882C225.472 161.401 235.209 165.183 238.028 167.075L240.531 168.754L238.369 168.628C235.825 168.48 236.204 168.811 240.439 170.442C243.198 171.504 252.84 181.109 253.765 183.717C253.926 184.169 252.969 185.218 251.639 186.049ZM228.24 89.4842C227.161 87.8406 227.285 87.2583 228.621 87.7015C229.142 87.874 229.479 88.6644 229.369 89.4579C229.194 90.7261 229.057 90.7291 228.24 89.4842ZM217.596 51.3176C217.087 51.1488 216.767 51.4182 216.884 51.916C217.001 52.414 216.431 54.3008 215.616 56.1093C214.801 57.9178 213.798 60.5882 213.386 62.0432C212.195 66.2466 203.965 83.8008 203.088 84.0071C202.651 84.1099 202.166 83.6513 202.01 82.9879C201.854 82.3246 201.362 81.8674 200.918 81.972C200.473 82.0766 200.089 81.8808 200.063 81.5366C199.903 79.3673 199.095 79.0063 196.02 79.7299C193.149 80.4053 192.866 80.6484 193.977 81.4834C195.034 82.2774 195.03 82.5086 193.955 82.7613C193.17 82.9461 192.487 82.4055 192.254 81.4143C192.04 80.5038 191.554 80.0678 191.173 80.4458C190.068 81.5443 189.838 78.9544 190.915 77.5364C191.453 76.8289 191.786 75.7959 191.655 75.2408C191.525 74.6858 191.838 73.6786 192.351 73.0028C193.094 72.0257 193.708 72.034 195.347 73.0426C196.481 73.7406 197.503 74.7119 197.618 75.2016C197.734 75.691 198.272 75.7907 198.815 75.4232C199.357 75.0554 200.39 74.9567 201.109 75.2038C202.147 75.5602 202.105 75.7293 200.907 76.0215C199.655 76.3266 199.617 76.5565 200.686 77.3593C202.357 78.615 203.474 78.3291 203.1 76.7413C202.938 76.0519 203.165 75.607 203.605 75.753C204.459 76.0359 209.628 66.5415 209.378 65.1477C209.296 64.6912 210.097 60.6064 211.157 56.0701L213.085 47.8225L215.741 49.4567C218.498 51.1537 219.188 51.8452 217.596 51.3176ZM233.597 144.717C231.488 143.735 229.674 142.552 229.566 142.09C229.457 141.628 231.153 142.311 233.335 143.608C238.38 146.608 238.469 146.989 233.597 144.717ZM241.137 172.027C237.549 170.626 236.189 170.244 236.288 170.664C236.446 171.337 243.167 174.034 243.47 173.546C243.638 173.278 242.588 172.594 241.137 172.027ZM230.974 140.696C229.361 139.75 228.159 138.625 228.304 138.195C228.448 137.766 228.063 137.533 227.447 137.678C226.831 137.823 225.217 137.18 223.861 136.25L221.394 134.558L224.447 135.745C226.125 136.399 227.411 136.559 227.304 136.102C227.196 135.646 226.29 135.056 225.289 134.791C222.278 133.997 222.465 132.012 225.56 131.904C228.105 131.816 228.148 131.754 226.797 130.107C225.47 128.489 225.482 128.467 227.023 129.666C228.924 131.147 230.139 135.348 228.76 135.672C228.238 135.795 228.747 136.534 229.891 137.315C234.027 140.138 234.953 143.028 230.974 140.696ZM216.563 79.5644C215.319 79.1522 215.686 80.4688 217.047 81.3064C217.732 81.7281 217.883 82.2201 217.458 82.6429C217.088 83.0109 216.208 82.8792 215.504 82.3499C214.487 81.586 214.371 81.0923 214.94 79.9553C215.574 78.6894 217.137 78.3798 217.393 79.469C217.445 79.6902 217.072 79.7331 216.563 79.5644ZM211.397 60.8378C210.935 60.9464 210.348 61.8137 210.092 62.7652C209.712 64.1774 209.876 64.3969 210.983 63.9602C212.429 63.3903 212.811 60.505 211.397 60.8378ZM231.55 146.896C231.105 147.001 230.911 147.81 231.119 148.695C231.327 149.579 231.862 150.217 232.306 150.113C232.751 150.008 232.944 149.199 232.736 148.314C232.528 147.43 231.994 146.792 231.55 146.896ZM215.947 87.2644C215.064 88.143 209.422 87.7428 208.039 86.7034C206.468 85.5236 207.971 80.8424 209.841 81.0934C210.522 81.185 210.771 80.9548 210.397 80.581C210.022 80.2078 210.101 79.8116 210.572 79.7008C211.043 79.5901 211.655 80.4643 211.932 81.6437C212.21 82.823 212.618 83.4966 212.84 83.1406C213.312 82.383 215.914 84.3438 216.28 85.733C216.418 86.2564 216.269 86.9456 215.947 87.2644ZM231.025 159.018C229.397 157.832 227.791 157.134 227.455 157.468C226.484 158.433 224.693 157.499 222.511 154.888C221.3 153.439 219.759 152.534 218.67 152.633C216.247 152.853 215.135 151.857 213.63 148.121C212.582 145.516 212.607 144.768 213.784 143.587C215.023 142.345 215.47 142.383 217.464 143.903C219.681 145.593 233.683 159.979 233.884 160.773C233.94 160.993 232.654 160.203 231.025 159.018ZM233.6 164.234C233.432 164.274 232.705 163.863 231.985 163.322C230.889 162.499 230.912 162.37 232.121 162.532C233.356 162.698 234.505 164.021 233.6 164.234ZM232.418 170.996C228.853 170.23 218.953 170.073 218.515 170.776C218.022 171.569 224.896 172.341 227.496 171.785C228.887 171.487 231.182 171.521 232.596 171.86C234.01 172.199 235.276 172.3 235.411 172.085C235.545 171.869 234.199 171.379 232.418 170.996ZM230.955 167.036C226.066 166.271 223.626 166.274 224.798 167.043C225.889 167.759 234.068 168.484 233.92 167.851C233.872 167.651 232.538 167.284 230.955 167.036ZM231.226 161.398C231.058 161.438 230.273 160.954 229.48 160.324C228.175 159.285 228.197 159.25 229.714 159.949C231.308 160.682 231.891 161.242 231.226 161.398ZM228.45 162.128C226.322 161.566 223.967 159.809 224.403 159.109C224.685 158.655 229.894 161.621 230.061 162.33C230.092 162.461 229.367 162.37 228.45 162.128ZM219.822 136.034C217.796 134.904 215.729 133.788 215.228 133.554C214.727 133.321 214.572 133.07 214.881 132.997C215.589 132.83 223.247 136.992 223.396 137.624C223.456 137.88 221.848 137.165 219.822 136.034ZM217.063 139.557C216.653 139.263 215.124 137.777 213.663 136.254L211.007 133.484L215.852 136.163C219.769 138.329 220.419 138.961 219.251 139.466C218.456 139.809 217.472 139.85 217.063 139.557ZM219.608 154.953C218.892 154.512 218.757 154.149 219.263 154.03C220.342 153.776 221.522 154.502 221.109 155.165C220.933 155.448 220.257 155.352 219.608 154.953ZM218.283 148.32C217.865 148.418 217.383 148.914 217.212 149.421C217.041 149.927 217.469 150.209 218.162 150.046C218.855 149.883 219.337 149.387 219.233 148.945C219.129 148.503 218.702 148.221 218.283 148.32ZM198.714 71.9053C198.407 71.7165 198.503 71.0092 198.927 70.3337C199.54 69.3576 199.655 69.4282 199.486 70.6773C199.369 71.5418 199.021 72.0944 198.714 71.9053ZM217.363 145.991C217.195 146.03 216.727 146.722 216.324 147.528C215.71 148.752 215.788 148.858 216.798 148.174C217.829 147.475 218.268 145.778 217.363 145.991ZM227.142 199.182C226.502 199.616 224.474 200.379 222.635 200.878L219.292 201.785L222.652 201.561L226.013 201.338L223.297 202.622C221.804 203.329 219.477 204.045 218.126 204.213C216.496 204.415 215.817 204.84 216.108 205.475C216.349 206.002 216.182 206.519 215.738 206.623C214.517 206.91 213.945 203.349 214.876 201.26C215.95 198.848 215.798 198.334 213.967 198.192C212.712 198.094 212.218 197.1 211.138 192.512C210.418 189.453 210.01 186.657 210.231 186.3C210.451 185.942 209.928 183.54 209.068 180.962C207.693 176.842 207.679 176.298 208.95 176.469C210.016 176.612 210.288 176.206 209.986 174.922C209.761 173.964 209.265 173.489 208.885 173.867C208.505 174.245 208.056 173.969 207.887 173.253C207.719 172.538 207.893 172.056 208.275 172.183C208.657 172.31 208.096 168.55 207.03 163.828C205.963 159.106 205.063 153.53 205.031 151.438L204.973 147.633L206.566 151.501C207.443 153.628 210.031 159.32 212.319 164.149C216.867 173.752 227.789 197.096 228.108 197.894C228.217 198.169 227.783 198.748 227.142 199.182ZM213.717 152.789C212.839 152.995 210.65 148.92 210.916 147.573C211.168 146.297 211.828 147.303 213.893 152.111C214.029 152.429 213.95 152.734 213.717 152.789ZM187.136 88.3965C186.329 90.1031 185.437 91.5542 185.153 91.6208C184.87 91.6874 184.189 90.6068 183.638 89.2193C182.915 87.3959 182.97 86.2381 183.838 85.0419C184.533 84.0851 184.789 82.3244 184.447 80.8679C183.823 78.2182 183.972 78.0529 186.896 78.14C188.579 78.1901 188.715 78.4681 188.662 81.7438C188.63 83.696 187.943 86.6895 187.136 88.3965ZM203.503 143.735C203.122 144.113 202.726 144.061 202.622 143.619C202.518 143.176 202.744 142.505 203.124 142.127C203.505 141.749 203.901 141.802 204.005 142.244C204.109 142.687 203.883 143.357 203.503 143.735ZM217.81 213.748C217.007 213.351 216.21 213.249 216.04 213.523C215.603 214.225 217.235 216.454 218.046 216.263C219.382 215.949 219.241 214.455 217.81 213.748ZM188.155 91.3891C187.315 93.1398 187.292 93.118 187.754 91.0089C188.354 88.2704 188.62 87.7263 188.86 88.7481C188.962 89.1793 188.644 90.3679 188.155 91.3891ZM220.295 224.786C219.013 223.997 217.523 224.869 218.274 225.968C218.686 226.572 219.529 226.946 220.149 226.8C221.338 226.52 221.414 225.474 220.295 224.786ZM225.337 247.643C224.867 247.754 224.791 248.153 225.17 248.531C225.549 248.909 226.019 249.18 226.215 249.134C226.412 249.087 226.487 248.688 226.383 248.246C226.279 247.803 225.808 247.532 225.337 247.643ZM184.069 77.4498C183.402 77.6067 182.774 77.3845 182.673 76.9562C182.572 76.5279 183.085 76.2572 183.812 76.3549C184.538 76.4526 185.167 76.6745 185.208 76.8485C185.248 77.0222 184.736 77.2929 184.069 77.4498ZM197.176 141.325C196.259 140.916 195.389 140.549 195.244 140.51C195.099 140.472 195.677 140.072 196.529 139.623C197.711 138.999 198.168 139.192 198.461 140.438C198.797 141.866 198.636 141.976 197.176 141.325ZM200.97 154.845L202.006 159.362L199.258 156.614C196.285 153.642 195.925 152.239 198.055 151.924C199.837 151.66 199.625 151.085 197.144 149.449C195.095 148.098 194.538 144.888 196.464 145.526C196.997 145.703 197.805 145.033 198.259 144.038C199.009 142.397 199.125 142.605 199.51 146.278C199.743 148.506 200.4 152.361 200.97 154.845ZM183.322 101.06C181.735 99.1536 179.816 97.5796 179.06 97.5618C176.815 97.5093 170.674 87.8312 172.265 86.8537C172.738 86.5629 171.876 85.0983 170.146 83.2509C168.543 81.5389 167.048 79.4174 166.825 78.5364C166.602 77.6555 165.261 75.4888 163.846 73.7214C160.173 69.1363 158.506 65.5008 159.41 64.0495C159.58 63.7774 162.466 65.2693 165.825 67.3649C170.936 70.554 172.091 70.9657 172.907 69.8908C173.728 68.81 174.188 69.0266 175.811 71.2582C177.228 73.2069 178.183 76.1052 179.413 82.1927C181.37 91.8792 181.246 92.8068 178.049 92.3872C176.789 92.2219 175.61 92.3229 175.43 92.6115C174.923 93.4255 176.035 93.8435 177.917 93.5468C179.507 93.2965 179.559 93.4003 178.656 95.0248C178.122 95.9859 178.042 96.6882 178.478 96.5856C178.914 96.483 179.932 95.2554 180.741 93.8578L182.212 91.3162L183.164 93.5001C183.687 94.701 184.587 97.6731 185.162 100.105L186.209 104.526L183.322 101.06ZM174.298 67.7796C173.588 67.1977 172.033 66.6591 170.844 66.5825C167.866 66.3905 165.338 64.9271 164.921 63.1538C164.729 62.3379 164.184 61.7616 163.709 61.8733C163.202 61.9925 163.232 62.7733 163.781 63.7657C164.684 65.3964 164.643 65.3987 162.608 63.8296C160.971 62.5681 160.433 61.46 160.203 58.8794C159.818 54.5503 160.377 43.7927 161.05 42.5995C161.338 42.0884 161.417 41.0067 161.227 40.1959C161.036 39.3851 161.429 36.6006 162.101 34.0077L163.322 29.2936L165.441 35.5837C167.521 41.7553 173.309 60.551 174.822 66.0478C175.47 68.4015 175.388 68.672 174.298 67.7796ZM189.766 148.664C189.636 150.562 189.962 154.304 190.489 156.98C191.016 159.657 191.465 163.369 191.488 165.231C191.511 167.093 192.057 171.982 192.702 176.097L193.874 183.579L191.228 183.455C186.225 183.22 186.012 182.77 185.646 171.66C185.463 166.123 185.605 159.996 185.962 158.045C186.319 156.094 186.927 152.033 187.313 149.02C187.699 146.008 188.42 142.593 188.914 141.431C189.797 139.358 189.815 139.374 189.907 142.267C189.959 143.888 189.895 146.767 189.766 148.664ZM182.74 150.935C182.021 154.498 181.285 158.31 181.107 159.405C180.785 161.37 180.741 161.366 177.844 159.096L174.907 156.795L176.078 154.297L177.248 151.799L177.334 154.442C177.392 156.214 177.736 157.01 178.377 156.859C178.904 156.735 179.019 156.319 178.633 155.935C178.247 155.551 178.424 153.775 179.025 151.99C179.627 150.205 179.776 148.099 179.356 147.309C178.422 145.55 180.422 142.397 182.312 142.651C184.191 142.904 184.226 143.576 182.74 150.935ZM194.065 190.788C194.252 191.712 191.15 188.769 190.847 187.737C190.763 187.45 191.488 187.234 192.459 187.257C193.561 187.283 194.157 187.776 194.048 188.57C193.951 189.27 193.959 190.268 194.065 190.788ZM188.896 173.049C187.922 171.591 187.601 171.495 187.313 172.578C186.551 175.444 187.156 179.239 188.402 179.406C190.12 179.637 190.451 175.379 188.896 173.049ZM176.982 145.324C175.428 147.653 175.352 147.68 173.637 146.517C171.971 145.388 171.966 145.364 173.545 146.054C174.585 146.508 175.133 146.457 175.006 145.918C174.895 145.444 174.087 144.852 173.211 144.603C172.335 144.354 171.821 143.826 172.068 143.429C172.316 143.032 171.775 142.379 170.866 141.978C169.958 141.576 169.604 141.145 170.079 141.018C170.554 140.892 172.01 141.492 173.314 142.352C175.854 144.026 178.097 144.214 175.908 142.57C175.187 142.028 174.768 141.31 174.977 140.975C175.185 140.64 174.371 139.504 173.167 138.451C171.962 137.398 171.181 136.489 171.431 136.43C171.988 136.299 178.266 141.641 178.444 142.397C178.515 142.696 177.857 144.013 176.982 145.324ZM184.191 180.03C183.542 181.268 183.238 179.545 183.7 177.246L184.237 174.574L184.32 177.1C184.366 178.49 184.308 179.808 184.191 180.03ZM158.895 77.432C157.501 76.0981 157.251 75.0334 158.422 75.4218C158.931 75.5906 159.486 76.3418 159.655 77.0912C159.92 78.2655 159.815 78.3126 158.895 77.432ZM162.232 96.1515C160.759 96.4876 160.607 96.3635 161.439 95.5024C162.77 94.1262 163.628 93.9243 163.865 94.9318C163.969 95.3741 163.234 95.9229 162.232 96.1515ZM183.676 182.768C183.231 182.873 182.83 182.799 182.784 182.604C182.738 182.408 183.011 181.94 183.392 181.562C183.772 181.184 184.174 181.258 184.284 181.726C184.394 182.194 184.12 182.663 183.676 182.768ZM178.665 170.522C176.025 172.557 172.827 170.7 172.569 166.984C172.467 165.513 172.047 164.271 171.637 164.223C171.226 164.176 171.395 163.104 172.013 161.843C172.631 160.581 173.287 159.663 173.471 159.803C174.181 160.341 180.126 167.938 180.292 168.519C180.389 168.857 179.656 169.758 178.665 170.522ZM180.957 189.348C180.682 190.112 180.542 191.1 180.647 191.542C180.751 191.984 181.061 191.721 181.336 190.956C181.61 190.191 181.75 189.203 181.646 188.761C181.542 188.319 181.232 188.583 180.957 189.348ZM163.635 127.502C162.25 128.097 158.874 129.662 156.134 130.979C153.393 132.295 147.01 135.354 141.948 137.776C136.886 140.197 131.428 142.828 129.818 143.622C127.795 144.619 125.771 144.983 123.269 144.801C119.872 144.553 119.797 144.497 122.055 143.886C123.378 143.527 128.314 141.172 133.022 138.651C137.73 136.13 141.952 134.189 142.404 134.339C143.497 134.701 149.135 131.934 154.277 128.511C160.394 124.439 158.39 124.555 151.884 128.65C148.819 130.578 145.019 132.461 143.438 132.832C141.858 133.204 137.221 135.25 133.133 137.379C125.278 141.471 114.374 145.659 119.613 142.573C121.055 141.723 124.316 139.795 126.859 138.288C129.403 136.782 131.796 134.924 132.179 134.161C133.096 132.33 132.656 132.496 128.501 135.551C126.297 137.172 124.821 137.833 124.514 137.338C124.246 136.905 123.672 136.634 123.238 136.736C122.804 136.838 122.761 137.233 123.143 137.613C123.858 138.326 123.354 138.753 119.779 140.46C118.122 141.25 117.727 141.182 117.873 140.13C117.998 139.221 117.551 138.922 116.451 139.181C115.569 139.389 114.289 139.14 113.607 138.627C112.579 137.855 112.829 137.493 115.08 136.5C116.572 135.842 118.3 135.472 118.92 135.677C119.641 135.916 119.761 135.765 119.253 135.259C118.785 134.792 118.966 134.347 119.693 134.176C120.505 133.985 120.861 134.377 120.73 135.32C120.593 136.312 120.855 136.55 121.578 136.09C122.153 135.724 122.399 134.755 122.124 133.937C121.641 132.499 121.675 132.492 123.144 133.738C123.98 134.447 124.589 134.686 124.498 134.268C124.407 133.85 124.738 133.903 125.234 134.386C126.488 135.606 128.671 133.925 128.235 132.075C127.828 130.342 130.541 129.275 131.684 130.718C132.251 131.433 132.44 131.389 132.628 130.496C132.757 129.883 133.53 129.223 134.345 129.031C135.16 128.84 135.866 128.267 135.913 127.759C135.96 127.251 137.588 126.284 139.531 125.609L143.063 124.382L139.815 126.895C136.438 129.507 137.151 129.311 145.223 125.405C149.67 123.253 150.128 123.171 151.691 124.243C152.906 125.077 153.601 125.097 154.194 124.318C154.765 123.566 155.236 123.46 155.747 123.969C156.151 124.371 157.678 124.276 159.142 123.758C160.877 123.143 162.04 123.161 162.481 123.807C162.854 124.353 163.716 124.668 164.397 124.507C166.77 123.949 166.14 126.424 163.635 127.502ZM180.596 192.827C180.425 192.867 180.265 193.669 180.241 194.609C180.217 195.549 180.479 196.037 180.824 195.695C181.426 195.096 181.233 192.677 180.596 192.827ZM146.832 57.7821C144.484 55.1761 137.533 44.8911 137.815 44.4387C138.071 44.0264 148.288 57.9684 148.541 59.0773C148.642 59.5201 147.874 58.9373 146.832 57.7821ZM170.758 171.381C170.313 171.485 169.864 171.209 169.76 170.767C169.656 170.325 169.935 169.877 170.38 169.773C170.824 169.668 171.273 169.944 171.377 170.386C171.481 170.829 171.203 171.276 170.758 171.381ZM155.386 122.358C154.941 122.463 155.04 122.069 155.607 121.484C156.173 120.898 157 120.334 157.444 120.229C157.889 120.124 157.79 120.518 157.224 121.103C156.657 121.689 155.83 122.254 155.386 122.358ZM177.809 213C177.103 214.064 175.951 221.923 176.521 221.789C177.039 221.667 177.388 219.794 178.008 213.802C178.082 213.084 177.993 212.724 177.809 213ZM135.134 45.2065C134.607 44.8817 132.105 41.5164 129.575 37.7283C123.976 29.344 125.175 29.6399 131.267 38.146C135.873 44.5767 136.769 46.2122 135.134 45.2065ZM164.907 174.618C162.583 177.786 161.736 177.988 163.491 174.956C164.49 173.228 165.4 171.793 165.513 171.766C166.225 171.599 165.858 173.321 164.907 174.618ZM147.685 107.476C146.165 106.825 145.594 106.156 145.998 105.5C146.404 104.84 147.12 104.939 148.134 105.796C150.462 107.762 150.246 108.573 147.685 107.476ZM148.79 138.75C147.193 139.443 145.114 140.398 144.17 140.872C142.93 141.495 142.368 141.375 142.149 140.441C141.981 139.729 142.47 138.952 143.235 138.712C149.5 136.751 151.419 136.325 151.546 136.865C151.627 137.209 150.387 138.057 148.79 138.75ZM139.774 123.703C136.875 124.726 136.132 124.747 136.262 123.801C136.379 122.957 137.905 122.27 141.406 121.484C146.942 120.242 146.017 121.499 139.774 123.703ZM144.885 123.737C144.179 123.632 144.326 123.397 145.259 123.137C146.103 122.901 146.625 122.979 146.419 123.309C146.214 123.64 145.523 123.832 144.885 123.737ZM154.778 187.02C155.393 186.876 156.475 185.953 157.183 184.97C157.891 183.986 158.32 183.666 158.138 184.258C157.956 184.85 155.367 188.054 152.386 191.378C149.404 194.702 146.237 198.76 145.346 200.395C143.801 203.235 136.968 212.131 134.754 214.187C133.449 215.399 133.14 215.869 140.407 205.576C143.751 200.839 147.608 195.623 148.977 193.984C150.347 192.346 151.227 190.765 150.933 190.472C150.639 190.179 152.131 187.937 154.249 185.49C156.596 182.778 157.233 182.26 155.879 184.163C154.659 185.879 154.163 187.165 154.778 187.02ZM152.701 188.327C151.787 189.101 151.313 189.903 151.647 190.109C151.982 190.315 152.729 189.681 153.309 188.701C154.316 186.998 154.29 186.982 152.701 188.327ZM135.248 144.656C134.639 144.564 135.051 144.274 136.163 144.013C137.275 143.751 137.772 143.827 137.269 144.18C136.765 144.534 135.856 144.748 135.248 144.656ZM122.556 148.508C121.85 148.403 121.997 148.167 122.93 147.907C123.774 147.672 124.296 147.75 124.09 148.08C123.885 148.41 123.194 148.603 122.556 148.508ZM111.814 156.937C103.555 160.59 102.946 159.99 111.073 156.207C114.57 154.579 118.119 152.905 118.959 152.488C120.354 151.794 120.381 151.835 119.27 152.953C118.6 153.626 115.245 155.419 111.814 156.937ZM120.937 186.496C120.244 186.659 119.818 186.371 119.992 185.856C120.166 185.34 120.695 185.048 121.169 185.205C122.452 185.63 122.357 186.162 120.937 186.496ZM101.547 156.625C96.9595 158.723 93.2952 160.176 93.4037 159.854C93.5123 159.532 95.6274 157.869 98.1038 156.157C100.581 154.446 102.802 152.332 103.04 151.459C103.634 149.278 106.683 148.74 109.472 150.322C112.21 151.876 112.59 151.574 101.547 156.625ZM102.84 158.322C101.022 158.735 101.048 158.661 103.097 157.598C104.351 156.946 106.104 156.235 106.991 156.018C108.256 155.708 108.2 155.865 106.735 156.742C105.707 157.357 103.954 158.068 102.84 158.322ZM99.6008 152.3C98.948 152.241 99.2287 151.791 100.255 151.249C101.518 150.583 101.858 150.614 101.398 151.351C101.038 151.929 100.229 152.356 99.6008 152.3ZM101.621 161.07C100.915 160.966 101.062 160.73 101.995 160.47C102.839 160.234 103.361 160.312 103.155 160.642C102.95 160.973 102.259 161.165 101.621 161.07ZM92.9163 163.285C91.2245 163.579 97.2634 159.951 99.2707 159.468C100.159 159.255 99.3694 159.978 97.5159 161.076C95.6624 162.174 93.5926 163.168 92.9163 163.285ZM25.74 194.179C25.1316 194.086 25.5436 193.797 26.6552 193.535C27.7669 193.274 28.2645 193.349 27.7613 193.703C27.2578 194.057 26.3482 194.271 25.74 194.179Z" fill="white"/>
</svg>
